<svg width="500" height="500" viewBox="0 0 500 500" fill="none" xmlns="http://www.w3.org/2000/svg">
<path d="M419.908 100.602C420.482 99.047 419.686 97.3221 418.132 96.7488L392.799 87.4065C391.245 86.8332 389.52 87.6286 388.947 89.1831C388.373 90.7376 389.169 92.4625 390.723 93.0358L413.241 101.34L404.936 123.858C404.363 125.412 405.159 127.137 406.713 127.71C408.268 128.284 409.993 127.488 410.566 125.934L419.908 100.602ZM91.592 252.969L418.35 102.288L415.837 96.8392L89.0794 247.52L91.592 252.969Z" fill="#D20606"/>
<path opacity="0.6" d="M419.121 252.121C420.293 250.95 420.293 249.05 419.121 247.879L400.029 228.787C398.858 227.615 396.958 227.615 395.787 228.787C394.615 229.958 394.615 231.858 395.787 233.029L412.757 250L395.787 266.971C394.615 268.142 394.615 270.042 395.787 271.213C396.958 272.385 398.858 272.385 400.029 271.213L419.121 252.121ZM91 253H417V247H91V253Z" fill="#DCD306"/>
<path d="M418.132 403.74C419.686 403.167 420.482 401.442 419.908 399.888L410.566 374.555C409.993 373.001 408.268 372.206 406.713 372.779C405.159 373.352 404.363 375.077 404.936 376.632L413.241 399.149L390.723 407.453C389.169 408.027 388.373 409.752 388.947 411.306C389.52 412.861 391.245 413.656 392.799 413.083L418.132 403.74ZM89.0794 252.969L415.837 403.65L418.35 398.201L91.592 247.52L89.0794 252.969Z" fill="#017C32"/>
<ellipse cx="89.5" cy="250" rx="63.5" ry="64" fill="#F1FDFF"/>
<ellipse cx="416" cy="99.5" rx="57" ry="57.5" fill="url(#paint0_linear_1_23)"/>
<ellipse cx="89" cy="250.5" rx="57" ry="57.5" fill="#0DB5DA"/>
<ellipse cx="416" cy="250.5" rx="57" ry="57.5" fill="url(#paint1_linear_1_23)"/>
<ellipse cx="416" cy="401" rx="57" ry="58" fill="url(#paint2_linear_1_23)"/>
<defs>
<linearGradient id="paint0_linear_1_23" x1="416" y1="42" x2="416" y2="157" gradientUnits="userSpaceOnUse">
<stop stop-color="#9E0000"/>
<stop offset="1" stop-color="#EA2525"/>
</linearGradient>
<linearGradient id="paint1_linear_1_23" x1="416" y1="193" x2="416" y2="308" gradientUnits="userSpaceOnUse">
<stop stop-color="#8A8D01"/>
<stop offset="1" stop-color="#DCD306"/>
</linearGradient>
<linearGradient id="paint2_linear_1_23" x1="416" y1="343" x2="416" y2="459" gradientUnits="userSpaceOnUse">
<stop stop-color="#017C32"/>
<stop offset="1" stop-color="#00D555"/>
</linearGradient>
</defs>
</svg>
